<svg xmlns="http://www.w3.org/2000/svg" viewBox="0 0 100 100">
  <defs>
    <linearGradient id="neonGrad" x1="0%" y1="0%" x2="100%" y2="100%">
      <stop offset="0%" style="stop-color:#00ff88;stop-opacity:1" />
      <stop offset="50%" style="stop-color:#00ccff;stop-opacity:1" />
      <stop offset="100%" style="stop-color:#ff8800;stop-opacity:1" />
    </linearGradient>
  </defs>
  
  <!-- Background -->
  <rect width="100" height="100" fill="#0a0f1a"/>
  
  <!-- Letter R with futuristic styling -->
  <path d="M 25 25 L 25 75 L 40 75 L 40 55 L 50 55 L 65 75 L 82 75 L 65 52 C 70 50 75 45 75 37 C 75 27 67 25 60 25 Z M 40 35 L 58 35 C 60 35 62 37 62 40 C 62 43 60 45 58 45 L 40 45 Z" 
        fill="url(#neonGrad)" 
        stroke="#00ff88" 
        stroke-width="1.5"/>
  
  <!-- Accent lines -->
  <line x1="20" y1="20" x2="35" y2="20" stroke="#00ff88" stroke-width="2" opacity="0.7"/>
  <line x1="65" y1="80" x2="80" y2="80" stroke="#ff8800" stroke-width="2" opacity="0.7"/>
  
  <!-- Circuit-like decoration -->
  <circle cx="85" cy="25" r="3" fill="#00ccff" opacity="0.8"/>
  <circle cx="15" cy="80" r="3" fill="#00ff88" opacity="0.8"/>
</svg>
